<svg width="15" height="14" viewBox="0 0 15 14" fill="none" xmlns="http://www.w3.org/2000/svg">
<path fill-rule="evenodd" clip-rule="evenodd" d="M6.78928 10.9783L2.74257 13.0492C2.41947 13.206 2.02142 13.095 1.8433 12.7983V12.7983C1.79177 12.7064 1.76396 12.6046 1.76212 12.5008V3.325C1.76212 1.575 3.04233 0.875 4.88458 0.875H9.21231C10.9984 0.875 12.3348 1.52833 12.3348 3.20833V12.5008C12.3348 12.6664 12.2644 12.8251 12.1391 12.9422C12.0137 13.0592 11.8438 13.125 11.6666 13.125C11.5535 13.1233 11.4424 13.0974 11.3418 13.0492L7.27014 10.9783C7.1201 10.9026 6.93932 10.9026 6.78928 10.9783Z" stroke="#EB5757" stroke-width="1.5" stroke-linecap="round" stroke-linejoin="round"/>
</svg>
